<?xml version="1.0" standalone="no"?>
<!DOCTYPE svg PUBLIC "-//W3C//DTD SVG 20010904//EN"
 "http://www.w3.org/TR/2001/REC-SVG-20010904/DTD/svg10.dtd">
<svg version="1.0" xmlns="http://www.w3.org/2000/svg"
 width="1200.000000pt" height="1200.000000pt" viewBox="0 0 1200.000000 1200.000000"
 preserveAspectRatio="xMidYMid meet">
<metadata>
Created by potrace 1.11, written by Peter Selinger 2001-2013
</metadata>
<g transform="translate(0.000000,1200.000000) scale(0.100000,-0.100000)"
fill="#000000" stroke="none">
<path d="M0 6000 l0 -6000 6000 0 6000 0 0 6000 0 6000 -6000 0 -6000 0 0
-6000z m6858 2578 l832 -481 0 -972 0 -972 -832 -481 c-458 -265 -840 -483
-848 -487 -14 -5 -136 64 -1297 735 l-403 232 0 973 0 973 403 232 c1144 662
1283 740 1297 735 8 -4 390 -222 848 -487z m1212 -4813 l0 -505 -93 0 -94 0 0
505 0 505 94 0 93 0 0 -505z m-3708 454 c140 -30 235 -118 254 -237 l7 -42
-97 0 c-83 0 -97 2 -102 18 -26 84 -65 112 -158 112 -72 0 -120 -20 -140 -59
-23 -44 -20 -67 17 -106 25 -28 56 -44 145 -75 183 -65 252 -107 298 -186 31
-53 41 -140 24 -204 -17 -62 -87 -130 -165 -160 -50 -20 -79 -24 -170 -24
-123 0 -185 18 -272 78 -55 38 -113 136 -113 192 l0 34 94 0 94 0 10 -43 c20
-76 75 -109 183 -109 106 0 149 32 149 109 0 70 -32 95 -192 151 -225 80 -308
159 -308 297 0 96 44 166 134 212 92 48 206 63 308 42z m3218 -159 l0 -90 60
0 60 0 0 -70 0 -70 -60 0 -60 0 0 -194 c0 -225 0 -226 81 -226 l50 0 -3 -72
-3 -73 -48 -9 c-64 -11 -149 1 -188 27 -18 12 -42 40 -53 62 -19 36 -21 60
-24 263 l-3 222 -50 0 -49 0 0 70 0 70 50 0 50 0 0 90 0 90 95 0 95 0 0 -90z
m-2362 -91 c87 -26 162 -118 176 -216 l6 -43 -89 0 -89 0 -6 34 c-14 72 -104
114 -172 80 -61 -30 -79 -78 -78 -204 0 -161 35 -215 135 -215 57 0 100 27
114 73 l9 32 88 0 88 0 -6 -27 c-22 -103 -71 -166 -157 -204 -73 -33 -201 -33
-272 -1 -127 58 -186 166 -187 341 0 131 24 204 91 274 83 88 215 117 349 76z
m730 12 c14 -8 16 -22 14 -94 l-3 -86 -57 0 c-70 1 -103 -11 -131 -47 -20 -25
-21 -37 -21 -260 l0 -234 -93 0 -94 0 0 355 0 355 89 0 c85 0 88 -1 88 -22 0
-42 15 -52 34 -23 31 48 130 79 174 56z m637 -6 c22 -8 55 -31 74 -52 l33 -38
39 37 c51 48 130 73 207 64 64 -8 86 -18 130 -59 55 -53 62 -96 62 -399 l0
-268 -89 0 -90 0 -3 254 c-3 239 -4 256 -24 282 -39 53 -141 52 -183 -3 -20
-24 -21 -39 -21 -279 l0 -254 -95 0 -95 0 0 250 c0 288 -3 302 -70 320 -52 14
-112 -2 -139 -37 -20 -24 -21 -39 -21 -279 l0 -254 -93 0 -94 0 0 355 0 355
89 0 88 0 0 -29 c0 -39 13 -46 36 -20 54 60 172 84 259 54z"/>
<path d="M5544 8642 c-243 -141 -586 -340 -762 -442 l-322 -185 0 -890 0 -890
338 -194 c185 -107 530 -306 766 -443 237 -137 435 -247 441 -246 6 2 354 201
773 443 l761 440 0 890 0 890 -761 440 c-419 242 -769 441 -778 442 -8 1 -214
-114 -456 -255z m577 -752 c60 -33 131 -72 158 -85 l49 -25 -5 -73 -5 -72 153
-84 c85 -46 166 -93 181 -103 l28 -19 2 -165 3 -165 55 -29 c30 -15 63 -31 73
-34 15 -5 17 -23 17 -184 0 -158 -2 -181 -17 -194 -10 -9 -81 -50 -157 -93
-143 -78 -149 -80 -212 -55 -29 12 -38 9 -230 -99 -111 -61 -207 -111 -214
-111 -7 0 -103 50 -214 111 -192 108 -201 111 -230 99 -64 -26 -70 -24 -213
55 -76 43 -146 84 -155 93 -16 13 -18 35 -18 181 0 91 4 171 8 177 4 7 37 28
75 49 l67 37 0 163 0 164 28 19 c15 10 95 56 179 103 l152 83 3 74 3 74 150
84 c83 46 156 84 164 84 8 0 63 -27 122 -60z"/>
<path d="M5895 7819 c-49 -28 -93 -54 -98 -58 -4 -4 40 -33 98 -65 l105 -57
106 58 c95 52 104 58 87 71 -34 25 -181 102 -195 102 -7 0 -53 -23 -103 -51z"/>
<path d="M5750 7572 l0 -117 105 -58 c57 -31 106 -57 110 -57 3 0 5 54 5 119
l0 119 -104 56 c-57 31 -107 56 -110 56 -3 0 -6 -53 -6 -118z"/>
<path d="M6133 7634 l-103 -56 0 -119 c0 -65 2 -119 5 -119 4 0 53 26 110 57
l105 58 0 117 c0 65 -3 118 -7 118 -5 0 -54 -26 -110 -56z"/>
<path d="M5528 7472 l-138 -77 0 -122 c0 -68 2 -123 5 -123 3 0 27 11 54 24
l48 25 119 -66 c65 -36 138 -74 162 -85 23 -10 42 -24 42 -31 3 -67 -2 -341
-6 -351 -3 -7 -38 -30 -79 -52 -41 -21 -75 -42 -75 -46 0 -9 324 -188 340
-188 16 0 340 179 340 188 0 4 -34 25 -75 46 -48 26 -77 47 -81 60 -2 12 -3
95 -2 186 l3 165 159 87 159 87 48 -25 c27 -13 51 -24 54 -24 3 0 5 55 5 123
l0 122 -136 75 c-75 41 -140 77 -145 78 -5 2 -9 -26 -9 -61 0 -78 10 -68 -188
-176 l-132 -73 -160 88 -160 89 0 67 c0 38 -3 68 -7 67 -5 0 -70 -35 -145 -77z"/>
<path d="M5390 7064 c-52 -29 -96 -57 -98 -62 -1 -4 45 -32 102 -62 l105 -55
53 29 c29 16 77 42 106 59 l54 30 -108 58 c-59 33 -110 59 -113 58 -3 -1 -49
-25 -101 -55z"/>
<path d="M6392 7060 l-103 -58 53 -30 c29 -16 77 -42 106 -58 l53 -29 104 55
c58 29 105 57 105 61 0 7 -202 120 -211 118 -2 0 -50 -27 -107 -59z"/>
<path d="M5240 6822 l0 -120 88 -48 c48 -26 97 -54 110 -62 l22 -14 0 124 0
124 -101 54 c-56 30 -105 57 -110 58 -5 2 -9 -50 -9 -116z"/>
<path d="M5633 6881 l-103 -56 0 -123 0 -124 43 25 c23 13 72 41 110 61 l67
38 0 119 c0 65 -3 119 -7 118 -5 -1 -54 -27 -110 -58z"/>
<path d="M6250 6822 l0 -120 68 -38 c37 -20 86 -48 110 -61 l42 -25 0 124 0
123 -102 55 c-57 30 -106 57 -110 58 -5 2 -8 -50 -8 -116z"/>
<path d="M6643 6882 l-103 -56 0 -124 0 -124 23 14 c12 8 61 36 110 62 l87 48
0 119 c0 65 -3 119 -7 118 -5 0 -54 -26 -110 -57z"/>
</g>
</svg>
