<?xml version="1.0" standalone="no"?>
<!DOCTYPE svg PUBLIC "-//W3C//DTD SVG 20010904//EN"
 "http://www.w3.org/TR/2001/REC-SVG-20010904/DTD/svg10.dtd">
<svg version="1.0" xmlns="http://www.w3.org/2000/svg"
 width="1200.000000pt" height="1200.000000pt" viewBox="0 0 1200.000000 1200.000000"
 preserveAspectRatio="xMidYMid meet">
<metadata>
Created by potrace 1.11, written by Peter Selinger 2001-2013
</metadata>
<g transform="translate(0.000000,1200.000000) scale(0.100000,-0.100000)"
fill="#000000" stroke="none">
<path d="M0 6000 l0 -6000 6000 0 6000 0 0 6000 0 6000 -6000 0 -6000 0 0
-6000z m6828 2599 c449 -259 827 -478 840 -485 l22 -14 0 -975 0 -975 -22 -14
c-100 -62 -1660 -956 -1668 -956 -11 0 -249 136 -1315 752 l-370 214 0 979 0
979 340 196 c187 108 563 326 835 483 272 157 501 286 508 287 7 0 381 -212
830 -471z m1252 -4834 l0 -505 -100 0 -100 0 0 505 0 505 100 0 100 0 0 -505z
m-3692 451 c132 -36 231 -141 232 -249 l0 -38 -97 3 -97 3 -7 33 c-13 63 -71
102 -154 102 -88 0 -147 -42 -147 -105 0 -63 28 -83 202 -144 219 -77 300
-161 300 -313 0 -104 -61 -186 -174 -232 -77 -31 -268 -29 -349 3 -75 30 -135
76 -169 131 -29 46 -53 141 -38 150 7 4 138 5 188 1 6 -1 12 -12 12 -26 0 -76
70 -124 178 -125 95 0 152 38 152 103 0 70 -47 106 -205 157 -143 46 -249 121
-282 198 -23 54 -21 148 5 198 22 44 74 94 122 119 83 43 230 57 328 31z
m3192 -156 l0 -90 60 0 c66 0 62 4 62 -75 0 -25 -1 -49 -1 -55 -1 -5 -28 -10
-61 -10 l-60 0 0 -188 c0 -224 3 -232 81 -232 l49 0 0 -74 0 -73 -31 -7 c-94
-18 -200 4 -241 50 -42 48 -48 84 -48 309 l0 215 -53 0 -53 0 1 68 0 67 53 3
52 3 0 90 0 89 95 0 95 0 0 -90z m-2374 -85 c101 -30 176 -116 190 -219 l7
-46 -90 0 -90 0 -12 39 c-16 55 -52 81 -111 81 -95 0 -130 -56 -130 -209 0
-159 32 -211 130 -211 58 0 96 23 110 65 l12 35 90 0 91 0 -6 -34 c-14 -84
-75 -162 -156 -200 -37 -17 -65 -21 -141 -21 -84 0 -102 3 -153 29 -117 57
-172 165 -171 341 0 110 11 156 56 227 73 116 228 167 374 123z m762 -82 l3
-93 -61 0 c-65 0 -116 -16 -139 -44 -11 -13 -14 -65 -14 -256 l0 -240 -99 0
-98 0 0 355 0 356 93 -3 92 -3 3 -33 3 -32 27 31 c35 42 77 59 137 56 l50 -2
3 -92z m615 86 c21 -5 54 -27 75 -50 l38 -39 28 29 c48 50 119 74 203 69 97
-7 144 -37 181 -116 27 -57 27 -58 30 -334 l4 -278 -101 0 -101 0 0 260 0 261
-25 24 c-27 28 -94 34 -140 13 -51 -23 -55 -46 -55 -313 l0 -245 -94 0 -95 0
-3 261 -3 261 -28 24 c-53 45 -166 24 -184 -35 -5 -15 -8 -135 -7 -268 l1
-243 -99 0 -98 0 0 355 0 355 90 0 91 0 5 -30 6 -29 34 26 c66 49 161 66 247
42z"/>
<path d="M5230 8456 l-765 -443 0 -888 0 -888 768 -444 767 -444 618 357 c339
196 685 396 767 445 l150 87 0 887 0 888 -150 87 c-420 244 -1384 800 -1387
799 -2 0 -347 -199 -768 -443z m927 -582 c76 -41 145 -79 153 -83 11 -6 16
-29 18 -84 l3 -75 174 -97 c129 -71 176 -102 180 -118 3 -12 6 -89 8 -171 l2
-149 69 -37 69 -36 -2 -180 c-2 -122 -6 -183 -14 -190 -7 -6 -79 -48 -162 -93
l-150 -83 -42 23 -43 22 -200 -112 c-111 -61 -210 -111 -220 -111 -10 0 -109
50 -220 111 l-200 112 -43 -23 -42 -22 -160 89 -160 89 0 184 0 184 68 39 67
39 0 153 c0 84 3 160 6 169 3 9 84 59 180 112 l174 96 0 62 c0 35 6 70 13 80
18 24 287 175 314 175 13 1 85 -33 160 -75z"/>
<path d="M5887 7813 l-99 -56 99 -53 c54 -29 105 -53 113 -53 8 0 59 24 113
53 l98 53 -102 57 c-56 31 -107 56 -113 55 -6 -1 -55 -26 -109 -56z"/>
<path d="M5750 7573 l0 -118 100 -52 c55 -29 102 -53 105 -53 3 0 4 52 3 116
l-3 116 -99 54 c-54 30 -101 54 -102 54 -2 0 -4 -53 -4 -117z"/>
<path d="M6140 7635 l-95 -52 -3 -117 c-1 -64 1 -116 5 -116 4 0 51 24 103 53
l95 52 3 118 c1 64 -1 117 -5 116 -4 -1 -51 -25 -103 -54z"/>
<path d="M5525 7466 l-130 -73 -3 -123 c-1 -67 1 -120 5 -118 4 2 29 14 54 27
l47 24 148 -82 c82 -45 155 -85 163 -89 12 -7 14 -41 12 -187 -1 -99 -5 -183
-7 -187 -2 -4 -38 -26 -80 -48 -41 -23 -74 -43 -72 -45 9 -9 332 -185 338
-185 6 0 328 176 338 185 2 1 -32 22 -75 46 l-78 44 -3 182 -2 182 37 24 c21
13 94 54 162 92 l123 68 47 -24 c25 -13 50 -25 54 -27 4 -2 6 51 5 118 l-3
123 -130 73 c-71 40 -133 73 -137 74 -5 0 -8 -24 -8 -53 0 -29 -6 -60 -12 -69
-15 -18 -300 -178 -318 -178 -18 0 -303 160 -317 178 -7 9 -13 40 -13 69 0 29
-3 53 -7 53 -5 -1 -66 -34 -138 -74z"/>
<path d="M5392 7061 l-104 -58 34 -20 c18 -11 65 -37 104 -58 l70 -38 90 48
c49 27 95 53 102 58 14 11 8 15 -118 84 l-75 41 -103 -57z"/>
<path d="M6402 7061 c-56 -31 -102 -58 -102 -61 0 -3 47 -29 103 -59 l103 -54
70 38 c38 21 84 47 102 58 l33 20 -38 21 c-21 12 -68 38 -104 58 l-66 36 -101
-57z"/>
<path d="M5250 6816 l0 -115 99 -55 c54 -31 102 -56 105 -56 4 0 5 53 4 117
l-3 118 -95 52 c-52 28 -98 52 -102 52 -5 1 -8 -50 -8 -113z"/>
<path d="M5630 6876 l-95 -53 -3 -116 c-1 -65 0 -117 4 -117 4 0 53 26 110 57
l104 58 0 112 c0 84 -3 113 -12 112 -7 0 -56 -24 -108 -53z"/>
<path d="M6250 6817 l0 -112 104 -58 c57 -31 106 -57 110 -57 4 0 5 52 4 117
l-3 116 -95 53 c-52 29 -101 53 -107 53 -10 1 -13 -28 -13 -112z"/>
<path d="M6640 6877 l-95 -52 -3 -118 c-1 -64 0 -117 4 -117 3 0 51 25 105 56
l99 55 0 115 c0 63 -3 114 -7 113 -5 0 -51 -24 -103 -52z"/>
</g>
</svg>
